<svg xmlns="http://www.w3.org/2000/svg" width="272" height="68" fill="none"><g clip-path="url(#a)"><g filter="url(#b)"><path fill="#FFDB58" d="M57.182 49.626H58V46.05c0-3.472-2.864-6.332-6.342-6.332-2.762 0-5.217-2.042-5.626-4.698-.307-1.634.204-3.268 1.227-4.596 1.023-1.225 2.66-1.94 4.297-1.94 3.58 0 6.444-2.86 6.444-6.434v-3.574h-.818c-5.422 0-10.127-3.473-11.866-8.477H34.575v11.745c0 2.757-2.046 5.208-4.706 5.617-.409.102-.818.102-1.125.102-2.966-.204-5.319-2.655-5.319-5.617V10h-10.74c-1.74 5.004-6.445 8.477-11.867 8.477H0v3.574c0 3.472 2.864 6.332 6.342 6.332 2.762 0 5.217 2.043 5.626 4.698.307 1.634-.204 3.268-1.227 4.596-1.023 1.225-2.66 1.94-4.297 1.94-3.58 0-6.444 2.86-6.444 6.332v3.574h.818c5.422 0 10.127 3.473 11.866 8.477h10.741V46.255c0-2.757 2.046-5.208 4.706-5.617.306-.102.716-.102 1.022-.102 3.07.204 5.422 2.655 5.422 5.617V58h10.74c1.637-4.902 6.445-8.374 11.867-8.374Z"/><path stroke="#000" d="m46.875 30.105-.006.008-.006.007c-1.091 1.417-1.659 3.189-1.324 4.985.452 2.908 3.125 5.114 6.119 5.114 3.202 0 5.842 2.637 5.842 5.832v3.075h-.318c-5.505 0-10.41 3.445-12.22 8.374h-9.887V46.153c0-3.238-2.57-5.895-5.888-6.116h-.064c-.277-.001-.73-.001-1.107.113-2.895.466-5.091 3.125-5.091 6.105V57.5h-9.89c-1.898-5.02-6.7-8.477-12.217-8.477H.5V45.95c0-3.19 2.634-5.832 5.944-5.832 1.773 0 3.555-.771 4.68-2.12l.007-.008.006-.007c1.091-1.416 1.659-3.189 1.324-4.985-.452-2.907-3.125-5.114-6.119-5.114C3.14 27.883.5 25.247.5 22.051v-3.074h.318c5.518 0 10.32-3.458 12.217-8.477h9.89v11.347c0 3.233 2.565 5.894 5.785 6.116h.049c.297 0 .748 0 1.209-.11 2.903-.458 5.107-3.123 5.107-6.108V10.5h9.89c1.898 5.02 6.7 8.477 12.217 8.477h.318v3.074a5.913 5.913 0 0 1-5.944 5.934c-1.773 0-3.555.771-4.68 2.12Z"/></g><g filter="url(#c)"><mask id="d" width="195" height="43" x="74" y="7" fill="#000" maskUnits="userSpaceOnUse"><path fill="#fff" d="M74 7h195v43H74z"/><path d="M75.05 48V11.125h11.925c2.467 0 4.708.45 6.725 1.35a14.764 14.764 0 0 1 5.225 3.775c1.467 1.617 2.592 3.55 3.375 5.8.783 2.25 1.175 4.733 1.175 7.45 0 2.717-.392 5.208-1.175 7.475-.783 2.267-1.908 4.225-3.375 5.875a15.038 15.038 0 0 1-5.225 3.8c-2.017.9-4.258 1.35-6.725 1.35H75.05Zm7.8-2.3-3.5-3.7h6.625c1.8 0 3.425-.5 4.875-1.5 1.467-1.017 2.625-2.458 3.475-4.325.85-1.883 1.275-4.108 1.275-6.675 0-2.583-.425-4.792-1.275-6.625-.85-1.85-2.008-3.267-3.475-4.25-1.45-1-3.075-1.5-4.875-1.5H79.35l3.5-3.7V45.7Zm25.1 2.3V21.45h7.675V48h-7.675Zm3.825-30.875c-1.2 0-2.25-.317-3.15-.95-.883-.633-1.325-1.525-1.325-2.675 0-1.167.442-2.067 1.325-2.7.9-.633 1.95-.95 3.15-.95 1.217 0 2.267.317 3.15.95.9.633 1.35 1.533 1.35 2.7 0 1.167-.45 2.067-1.35 2.7-.883.617-1.933.925-3.15.925ZM132.116 48.6c-2.217 0-4.258-.525-6.125-1.575-1.867-1.067-3.367-2.642-4.5-4.725-1.133-2.083-1.7-4.65-1.7-7.7 0-2.917.575-5.392 1.725-7.425 1.167-2.033 2.683-3.575 4.55-4.625 1.883-1.067 3.9-1.6 6.05-1.6 2.1 0 4.017.533 5.75 1.6 1.75 1.067 3.15 2.525 4.2 4.375 1.05 1.833 1.575 3.95 1.575 6.35v.475l-3.35.05v-.325c0-1.25-.3-2.325-.9-3.225a6.053 6.053 0 0 0-2.325-2.075c-.95-.5-1.942-.75-2.975-.75-1.717 0-3.2.575-4.45 1.725-1.25 1.133-1.875 2.95-1.875 5.45s.625 4.342 1.875 5.525c1.267 1.167 2.75 1.75 4.45 1.75 1.067 0 2.075-.25 3.025-.75a6.124 6.124 0 0 0 2.3-2.175c.583-.933.875-2.033.875-3.3l3.35.175c0 2.383-.517 4.542-1.55 6.475-1.017 1.917-2.4 3.45-4.15 4.6-1.733 1.133-3.675 1.7-5.825 1.7Zm8.175-.6V8.925h7.775V48h-7.775Zm22.364.55c-1.933 0-3.658-.308-5.175-.925-1.5-.617-2.675-1.508-3.525-2.675-.85-1.167-1.275-2.583-1.275-4.25 0-1.883.517-3.417 1.55-4.6 1.033-1.183 2.4-2.083 4.1-2.7 1.717-.633 3.575-1.05 5.575-1.25 2.917-.283 4.925-.542 6.025-.775 1.117-.233 1.675-.642 1.675-1.225v-.05c0-.983-.475-1.758-1.425-2.325-.933-.567-2.242-.85-3.925-.85-1.783 0-3.15.325-4.1.975-.933.633-1.4 1.608-1.4 2.925h-7.625c0-2.133.575-3.933 1.725-5.4 1.167-1.467 2.742-2.575 4.725-3.325 1.983-.767 4.225-1.15 6.725-1.15 2.333 0 4.492.358 6.475 1.075 1.983.7 3.575 1.758 4.775 3.175 1.217 1.417 1.825 3.217 1.825 5.4v11.475c0 .683.017 1.342.05 1.975.05.617.15 1.183.3 1.7.167.583.375 1.067.625 1.45s.458.65.625.8h-7.625c-.117-.117-.3-.358-.55-.725a6.062 6.062 0 0 1-.6-1.275c-.2-.583-.35-1.167-.45-1.75-.083-.6-.125-1.3-.125-2.1l1.6 1.1c-.467 1.1-1.225 2.05-2.275 2.85-1.033.783-2.267 1.392-3.7 1.825-1.417.417-2.95.625-4.6.625Zm2.075-5.8c1.217 0 2.35-.217 3.4-.65a5.935 5.935 0 0 0 2.6-2.1c.667-.95 1-2.192 1-3.725V33.6l1.925 1.875c-1.1.4-2.375.733-3.825 1a63.46 63.46 0 0 1-4.3.6c-1.7.167-2.975.458-3.825.875-.833.4-1.25 1.083-1.25 2.05 0 .917.358 1.608 1.075 2.075.717.45 1.783.675 3.2.675Zm31.051 5.85c-1.583 0-3.108-.183-4.575-.55-1.466-.367-2.783-.908-3.95-1.625-1.15-.717-2.066-1.608-2.75-2.675-.666-1.083-1-2.342-1-3.775v-.45h7.7v.35c0 .967.425 1.675 1.275 2.125.867.45 2.034.675 3.5.675.767 0 1.5-.075 2.2-.225.717-.167 1.3-.425 1.75-.775.467-.367.7-.825.7-1.375 0-.883-.491-1.508-1.475-1.875-.966-.367-2.525-.733-4.675-1.1-1.216-.2-2.45-.483-3.7-.85s-2.4-.85-3.45-1.45c-1.05-.617-1.891-1.392-2.525-2.325-.633-.95-.95-2.1-.95-3.45 0-1.8.542-3.317 1.625-4.55 1.1-1.233 2.559-2.167 4.375-2.8 1.817-.633 3.817-.95 6-.95 2.084 0 4.025.35 5.825 1.05 1.8.683 3.259 1.675 4.375 2.975 1.117 1.283 1.675 2.833 1.675 4.65v.35h-7.625v-.3c0-.667-.216-1.208-.65-1.625-.416-.417-.95-.725-1.6-.925a6.36 6.36 0 0 0-2.025-.325c-.633 0-1.291.075-1.975.225-.666.133-1.233.367-1.7.7-.466.317-.7.767-.7 1.35 0 .567.25 1.033.75 1.4.5.35 1.2.642 2.1.875.9.217 1.942.425 3.125.625a35.7 35.7 0 0 1 3.525.775c1.25.317 2.417.775 3.5 1.375 1.1.583 1.984 1.358 2.65 2.325.684.95 1.025 2.158 1.025 3.625 0 1.517-.35 2.817-1.05 3.9-.7 1.083-1.65 1.967-2.85 2.65-1.183.667-2.508 1.158-3.975 1.475-1.45.333-2.941.5-4.475.5Zm16.853-.6V8.925h7.35V31.3l-1.525-.8 10.125-9.05h9.5l-13.15 11.75 1.65-2.95L237.859 48h-8.15l-8.2-13.675 1.975.15-4.3 3.9.8-3.325V48h-7.35Zm40.177.575c-2.866 0-5.391-.592-7.575-1.775-2.183-1.183-3.891-2.808-5.125-4.875-1.216-2.083-1.825-4.483-1.825-7.2 0-2.7.609-5.083 1.825-7.15 1.234-2.083 2.942-3.7 5.125-4.85 2.184-1.167 4.709-1.75 7.575-1.75 2.867 0 5.392.583 7.575 1.75 2.184 1.15 3.884 2.767 5.1 4.85 1.234 2.067 1.85 4.45 1.85 7.15 0 2.717-.616 5.117-1.85 7.2-1.216 2.067-2.916 3.692-5.1 4.875-2.183 1.183-4.708 1.775-7.575 1.775Zm0-6.15c1.35 0 2.525-.317 3.525-.95s1.775-1.525 2.325-2.675c.55-1.167.825-2.525.825-4.075 0-1.55-.275-2.892-.825-4.025-.55-1.15-1.325-2.033-2.325-2.65-1-.617-2.175-.925-3.525-.925-1.333 0-2.508.308-3.525.925-1 .617-1.775 1.5-2.325 2.65-.55 1.133-.825 2.475-.825 4.025 0 1.55.275 2.908.825 4.075.55 1.15 1.325 2.042 2.325 2.675 1.017.633 2.192.95 3.525.95Z"/></mask><path fill="#FFDB58" d="M75.05 48V11.125h11.925c2.467 0 4.708.45 6.725 1.35a14.764 14.764 0 0 1 5.225 3.775c1.467 1.617 2.592 3.55 3.375 5.8.783 2.25 1.175 4.733 1.175 7.45 0 2.717-.392 5.208-1.175 7.475-.783 2.267-1.908 4.225-3.375 5.875a15.038 15.038 0 0 1-5.225 3.8c-2.017.9-4.258 1.35-6.725 1.35H75.05Zm7.8-2.3-3.5-3.7h6.625c1.8 0 3.425-.5 4.875-1.5 1.467-1.017 2.625-2.458 3.475-4.325.85-1.883 1.275-4.108 1.275-6.675 0-2.583-.425-4.792-1.275-6.625-.85-1.85-2.008-3.267-3.475-4.25-1.45-1-3.075-1.5-4.875-1.5H79.35l3.5-3.7V45.7Zm25.1 2.3V21.45h7.675V48h-7.675Zm3.825-30.875c-1.2 0-2.25-.317-3.15-.95-.883-.633-1.325-1.525-1.325-2.675 0-1.167.442-2.067 1.325-2.7.9-.633 1.95-.95 3.15-.95 1.217 0 2.267.317 3.15.95.9.633 1.35 1.533 1.35 2.7 0 1.167-.45 2.067-1.35 2.7-.883.617-1.933.925-3.15.925ZM132.116 48.6c-2.217 0-4.258-.525-6.125-1.575-1.867-1.067-3.367-2.642-4.5-4.725-1.133-2.083-1.7-4.65-1.7-7.7 0-2.917.575-5.392 1.725-7.425 1.167-2.033 2.683-3.575 4.55-4.625 1.883-1.067 3.9-1.6 6.05-1.6 2.1 0 4.017.533 5.75 1.6 1.75 1.067 3.15 2.525 4.2 4.375 1.05 1.833 1.575 3.95 1.575 6.35v.475l-3.35.05v-.325c0-1.25-.3-2.325-.9-3.225a6.053 6.053 0 0 0-2.325-2.075c-.95-.5-1.942-.75-2.975-.75-1.717 0-3.2.575-4.45 1.725-1.25 1.133-1.875 2.95-1.875 5.45s.625 4.342 1.875 5.525c1.267 1.167 2.75 1.75 4.45 1.75 1.067 0 2.075-.25 3.025-.75a6.124 6.124 0 0 0 2.3-2.175c.583-.933.875-2.033.875-3.3l3.35.175c0 2.383-.517 4.542-1.55 6.475-1.017 1.917-2.4 3.45-4.15 4.6-1.733 1.133-3.675 1.7-5.825 1.7Zm8.175-.6V8.925h7.775V48h-7.775Zm22.364.55c-1.933 0-3.658-.308-5.175-.925-1.5-.617-2.675-1.508-3.525-2.675-.85-1.167-1.275-2.583-1.275-4.25 0-1.883.517-3.417 1.55-4.6 1.033-1.183 2.4-2.083 4.1-2.7 1.717-.633 3.575-1.05 5.575-1.25 2.917-.283 4.925-.542 6.025-.775 1.117-.233 1.675-.642 1.675-1.225v-.05c0-.983-.475-1.758-1.425-2.325-.933-.567-2.242-.85-3.925-.85-1.783 0-3.15.325-4.1.975-.933.633-1.4 1.608-1.4 2.925h-7.625c0-2.133.575-3.933 1.725-5.4 1.167-1.467 2.742-2.575 4.725-3.325 1.983-.767 4.225-1.15 6.725-1.15 2.333 0 4.492.358 6.475 1.075 1.983.7 3.575 1.758 4.775 3.175 1.217 1.417 1.825 3.217 1.825 5.4v11.475c0 .683.017 1.342.05 1.975.05.617.15 1.183.3 1.7.167.583.375 1.067.625 1.45s.458.65.625.8h-7.625c-.117-.117-.3-.358-.55-.725a6.062 6.062 0 0 1-.6-1.275c-.2-.583-.35-1.167-.45-1.75-.083-.6-.125-1.3-.125-2.1l1.6 1.1c-.467 1.1-1.225 2.05-2.275 2.85-1.033.783-2.267 1.392-3.7 1.825-1.417.417-2.95.625-4.6.625Zm2.075-5.8c1.217 0 2.35-.217 3.4-.65a5.935 5.935 0 0 0 2.6-2.1c.667-.95 1-2.192 1-3.725V33.6l1.925 1.875c-1.1.4-2.375.733-3.825 1a63.46 63.46 0 0 1-4.3.6c-1.7.167-2.975.458-3.825.875-.833.4-1.25 1.083-1.25 2.05 0 .917.358 1.608 1.075 2.075.717.45 1.783.675 3.2.675Zm31.051 5.85c-1.583 0-3.108-.183-4.575-.55-1.466-.367-2.783-.908-3.95-1.625-1.15-.717-2.066-1.608-2.75-2.675-.666-1.083-1-2.342-1-3.775v-.45h7.7v.35c0 .967.425 1.675 1.275 2.125.867.45 2.034.675 3.5.675.767 0 1.5-.075 2.2-.225.717-.167 1.3-.425 1.75-.775.467-.367.7-.825.7-1.375 0-.883-.491-1.508-1.475-1.875-.966-.367-2.525-.733-4.675-1.1-1.216-.2-2.45-.483-3.7-.85s-2.4-.85-3.45-1.45c-1.05-.617-1.891-1.392-2.525-2.325-.633-.95-.95-2.1-.95-3.45 0-1.8.542-3.317 1.625-4.55 1.1-1.233 2.559-2.167 4.375-2.8 1.817-.633 3.817-.95 6-.95 2.084 0 4.025.35 5.825 1.05 1.8.683 3.259 1.675 4.375 2.975 1.117 1.283 1.675 2.833 1.675 4.65v.35h-7.625v-.3c0-.667-.216-1.208-.65-1.625-.416-.417-.95-.725-1.6-.925a6.36 6.36 0 0 0-2.025-.325c-.633 0-1.291.075-1.975.225-.666.133-1.233.367-1.7.7-.466.317-.7.767-.7 1.35 0 .567.25 1.033.75 1.4.5.35 1.2.642 2.1.875.9.217 1.942.425 3.125.625a35.7 35.7 0 0 1 3.525.775c1.25.317 2.417.775 3.5 1.375 1.1.583 1.984 1.358 2.65 2.325.684.95 1.025 2.158 1.025 3.625 0 1.517-.35 2.817-1.05 3.9-.7 1.083-1.65 1.967-2.85 2.65-1.183.667-2.508 1.158-3.975 1.475-1.45.333-2.941.5-4.475.5Zm16.853-.6V8.925h7.35V31.3l-1.525-.8 10.125-9.05h9.5l-13.15 11.75 1.65-2.95L237.859 48h-8.15l-8.2-13.675 1.975.15-4.3 3.9.8-3.325V48h-7.35Zm40.177.575c-2.866 0-5.391-.592-7.575-1.775-2.183-1.183-3.891-2.808-5.125-4.875-1.216-2.083-1.825-4.483-1.825-7.2 0-2.7.609-5.083 1.825-7.15 1.234-2.083 2.942-3.7 5.125-4.85 2.184-1.167 4.709-1.75 7.575-1.75 2.867 0 5.392.583 7.575 1.75 2.184 1.15 3.884 2.767 5.1 4.85 1.234 2.067 1.85 4.45 1.85 7.15 0 2.717-.616 5.117-1.85 7.2-1.216 2.067-2.916 3.692-5.1 4.875-2.183 1.183-4.708 1.775-7.575 1.775Zm0-6.15c1.35 0 2.525-.317 3.525-.95s1.775-1.525 2.325-2.675c.55-1.167.825-2.525.825-4.075 0-1.55-.275-2.892-.825-4.025-.55-1.15-1.325-2.033-2.325-2.65-1-.617-2.175-.925-3.525-.925-1.333 0-2.508.308-3.525.925-1 .617-1.775 1.5-2.325 2.65-.55 1.133-.825 2.475-.825 4.025 0 1.55.275 2.908.825 4.075.55 1.15 1.325 2.042 2.325 2.675 1.017.633 2.192.95 3.525.95Z"/><path fill="#000" d="M75.05 48h-1v1h1v-1Zm0-36.875v-1h-1v1h1Zm18.65 1.35-.408.913.01.004.398-.917Zm5.225 3.775-.748.664.007.008.741-.672Zm3.375 5.8-.944.329.944-.329Zm0 14.925-.945-.327.945.327Zm-3.375 5.875-.747-.664.747.664Zm-5.225 3.8-.405-.914h-.002l.407.914Zm-10.85-.95-.726.687 1.726 1.825V45.7h-1Zm-3.5-3.7v-1h-2.322l1.596 1.687.726-.687Zm11.5-1.5.568.823.002-.001-.57-.822Zm3.475-4.325.91.414.002-.003-.912-.411Zm0-13.3-.909.418.002.003.907-.421Zm-3.475-4.25-.568.823.011.008.557-.831Zm-11.5-1.5-.726-.687-1.596 1.687h2.322v-1Zm3.5-3.7h1v-2.512l-1.726 1.825.726.687ZM76.05 48V11.125h-2V48h2Zm-1-35.875h11.925v-2H75.05v2Zm11.925 0c2.343 0 4.443.427 6.318 1.263l.814-1.826c-2.159-.964-4.541-1.437-7.132-1.437v2Zm6.327 1.267a13.764 13.764 0 0 1 4.875 3.522l1.496-1.328a15.763 15.763 0 0 0-5.575-4.028l-.796 1.834Zm4.882 3.53c1.369 1.508 2.428 3.322 3.172 5.457l1.888-.658c-.823-2.365-2.013-4.418-3.578-6.143l-1.482 1.344Zm3.172 5.457c.741 2.13 1.119 4.5 1.119 7.121h2c0-2.813-.406-5.41-1.231-7.779l-1.888.658Zm1.119 7.121c0 2.62-.378 5-1.12 7.148l1.89.654c.824-2.385 1.23-4.989 1.23-7.802h-2Zm-1.12 7.148c-.744 2.153-1.806 3.994-3.177 5.538l1.494 1.328c1.562-1.756 2.751-3.832 3.573-6.212l-1.89-.654Zm-3.178 5.538a14.04 14.04 0 0 1-4.882 3.55l.81 1.828a16.037 16.037 0 0 0 5.568-4.05l-1.496-1.328Zm-4.885 3.55C91.419 46.574 89.319 47 86.976 47v2c2.59 0 4.973-.473 7.133-1.437l-.816-1.826ZM86.976 47H75.05v2h11.925v-2Zm-3.398-1.987-3.5-3.7-1.453 1.374 3.5 3.7 1.453-1.374ZM79.35 43h6.625v-2H79.35v2Zm6.625 0c1.998 0 3.822-.559 5.443-1.677l-1.136-1.646C89.003 40.559 87.577 41 85.975 41v2Zm5.445-1.678c1.635-1.134 2.902-2.727 3.815-4.733l-1.82-.828c-.787 1.727-1.837 3.018-3.135 3.917l1.14 1.644Zm3.817-4.736c.92-2.04 1.363-4.41 1.363-7.086h-2c0 2.458-.407 4.537-1.186 6.264l1.823.822ZM96.6 29.5c0-2.69-.442-5.05-1.368-7.046l-1.814.842c.774 1.67 1.182 3.727 1.182 6.204h2Zm-1.366-7.043c-.915-1.99-2.185-3.562-3.827-4.663l-1.114 1.662c1.291.865 2.338 2.128 3.123 3.837l1.818-.835Zm-3.816-4.655c-1.621-1.118-3.445-1.677-5.443-1.677v2c1.602 0 3.028.441 4.307 1.323l1.136-1.646Zm-5.443-1.677H79.35v2h6.625v-2Zm-5.898 1.687 3.5-3.7-1.453-1.374-3.5 3.7 1.453 1.374Zm1.773-4.387V45.7h2V13.425h-2ZM107.95 48h-1v1h1v-1Zm0-26.55v-1h-1v1h1Zm7.675 0h1v-1h-1v1Zm0 26.55v1h1v-1h-1Zm-7-31.825-.583.813.007.005.576-.818Zm0-5.375-.576-.818-.007.005.583.813Zm6.3 0-.583.813.007.005.576-.818Zm0 5.4.572.82.003-.002-.575-.818ZM108.95 48V21.45h-2V48h2Zm-1-25.55h7.675v-2h-7.675v2Zm6.675-1V48h2V21.45h-2Zm1 25.55h-7.675v2h7.675v-2Zm-3.85-30.875c-1.014 0-1.858-.264-2.575-.768l-1.151 1.636c1.084.763 2.339 1.132 3.726 1.132v-2Zm-2.567-.763c-.604-.433-.908-1.012-.908-1.862h-2c0 1.45.58 2.654 1.742 3.488l1.166-1.626ZM108.3 13.5c0-.872.308-1.457.908-1.887l-1.166-1.626c-1.167.837-1.742 2.052-1.742 3.513h2Zm.9-1.882c.717-.504 1.561-.768 2.575-.768v-2c-1.387 0-2.642.37-3.726 1.132l1.151 1.636Zm2.575-.768c1.034 0 1.874.266 2.567.763l1.166-1.626c-1.074-.77-2.333-1.137-3.733-1.137v2Zm2.574.768c.616.433.926 1.018.926 1.882h2c0-1.469-.59-2.684-1.775-3.518l-1.151 1.636Zm.926 1.882c0 .864-.31 1.449-.926 1.882l1.151 1.636c1.185-.834 1.775-2.049 1.775-3.518h-2Zm-.923 1.88c-.694.485-1.538.745-2.577.745v2c1.394 0 2.65-.356 3.722-1.105l-1.145-1.64Zm11.639 31.645-.496.868.006.004.49-.872Zm-4.5-4.725-.879.478.879-.478Zm.025-15.125-.868-.498-.003.006.871.492Zm4.55-4.625.49.872.003-.002-.493-.87Zm11.8 0-.524.852.003.002.521-.854Zm4.2 4.375-.87.494.002.003.868-.497Zm1.575 6.825.015 1 .985-.015v-.985h-1Zm-3.35.05h-1v1.015l1.015-.015-.015-1Zm-.9-3.55.832-.555-.832.555Zm-2.325-2.075-.466.885.012.006.454-.891Zm-7.425.975.672.74.005-.004-.677-.736Zm0 10.975-.688.726.01.01.678-.736Zm7.475 1 .466.885.012-.006-.478-.879Zm2.3-2.175.848.53-.848-.53Zm.875-3.3.052-.999-1.052-.055v1.054h1Zm3.35.175h1v-.95l-.948-.049-.052.999Zm-1.55 6.475-.882-.471-.002.002.884.469Zm-4.15 4.6.547.837.002-.001-.549-.836Zm2.35 1.1h-1v1h1v-1Zm0-39.075v-1h-1v1h1Zm7.775 0h1v-1h-1v1Zm0 39.075v1h1v-1h-1Zm-15.95-.4c-2.051 0-3.923-.484-5.635-1.447l-.98 1.744c2.021 1.137 4.233 1.703 6.615 1.703v-2Zm-5.629-1.443c-1.689-.965-3.064-2.397-4.118-4.335l-1.757.956c1.213 2.229 2.839 3.947 4.883 5.115l.992-1.736Zm-4.118-4.335c-1.034-1.9-1.578-4.292-1.578-7.222h-2c0 3.17.589 5.912 1.821 8.178l1.757-.956Zm-1.578-7.222c0-2.787.549-5.083 1.595-6.933l-1.741-.984c-1.253 2.216-1.854 4.87-1.854 7.917h2Zm1.592-6.927c1.086-1.893 2.478-3.298 4.173-4.251l-.98-1.744c-2.039 1.147-3.68 2.825-4.928 5l1.735.995Zm4.176-4.253a11.08 11.08 0 0 1 5.557-1.47v-2c-2.324 0-4.51.579-6.543 1.73l.986 1.74Zm5.557-1.47c1.921 0 3.655.485 5.226 1.452l1.048-1.704c-1.896-1.166-3.995-1.748-6.274-1.748v2Zm5.229 1.454c1.6.975 2.882 2.307 3.851 4.015l1.74-.988c-1.131-1.992-2.649-3.576-4.55-4.735l-1.041 1.708Zm3.853 4.018c.952 1.662 1.443 3.603 1.443 5.853h2c0-2.55-.559-4.843-1.707-6.847l-1.736.994Zm1.443 5.853v.251h2v-.251h-2Zm0 .25v.225h2v-.226h-2Zm.985-.775-3.35.05.03 2 3.35-.05-.03-2Zm-2.335 1.05v-.15h-2v.15h2Zm0-.15v-.176h-2v.176h2Zm0-.175c0-1.416-.342-2.691-1.068-3.78l-1.664 1.11c.474.711.732 1.586.732 2.67h2Zm-1.068-3.78a7.052 7.052 0 0 0-2.704-2.411l-.907 1.782a5.05 5.05 0 0 1 1.947 1.739l1.664-1.11Zm-2.691-2.405a7.305 7.305 0 0 0-3.441-.865v2a5.3 5.3 0 0 1 2.509.635l.932-1.77Zm-3.441-.865c-1.965 0-3.69.667-5.127 1.99l1.354 1.47c1.063-.977 2.304-1.46 3.773-1.46v-2Zm-5.122 1.984c-1.543 1.399-2.203 3.546-2.203 6.191h2c0-2.355.589-3.841 1.547-4.71l-1.344-1.48Zm-2.203 6.191c0 2.65.662 4.807 2.187 6.251l1.375-1.452c-.974-.923-1.562-2.448-1.562-4.799h-2Zm2.197 6.26c1.449 1.335 3.173 2.015 5.128 2.015v-2c-1.446 0-2.688-.486-3.773-1.486l-1.355 1.471Zm5.128 2.015c1.23 0 2.398-.29 3.491-.865l-.932-1.77a5.402 5.402 0 0 1-2.559.635v2Zm3.503-.871a7.127 7.127 0 0 0 2.67-2.524l-1.696-1.06a5.128 5.128 0 0 1-1.93 1.826l.956 1.758Zm2.67-2.524c.697-1.115 1.027-2.405 1.027-3.83h-2c0 1.108-.253 2.018-.723 2.77l1.696 1.06Zm-.025-2.831 3.35.175.104-1.998-3.35-.175-.104 1.998Zm2.402-.824c0 2.234-.483 4.228-1.432 6.004l1.764.942c1.117-2.09 1.668-4.413 1.668-6.946h-2Zm-1.434 6.006c-.94 1.774-2.211 3.179-3.815 4.233l1.098 1.672c1.896-1.246 3.392-2.908 4.484-4.967l-1.767-.938Zm-3.813 4.232c-1.565 1.023-3.315 1.537-5.278 1.537v2c2.336 0 4.47-.62 6.372-1.863l-1.094-1.674ZM141.291 48V8.925h-2V48h2Zm-1-38.075h7.775v-2h-7.775v2Zm6.775-1V48h2V8.925h-2Zm1 38.075h-7.775v2h7.775v-2Zm9.414.625-.38.925.003.001.377-.926Zm-3.525-2.675-.808.589.808-.589Zm.275-8.85.753.658-.753-.658Zm4.1-2.7.341.94.005-.002-.346-.938Zm5.575-1.25-.097-.995h-.003l.1.995Zm6.025-.775-.205-.979h-.003l.208.979Zm.25-3.6-.519.855.007.004.512-.859Zm-8.025.125.561.828.004-.003-.565-.825Zm-1.4 2.925v1h1v-1h-1Zm-7.625 0h-1v1h1v-1Zm1.725-5.4-.783-.623-.004.006.787.617Zm4.725-3.325.354.935.006-.002-.36-.933Zm13.2-.075-.34.94.007.003.333-.943Zm4.775 3.175-.763.646.004.006.759-.652Zm1.875 18.85-.999.053.001.014.001.014.997-.081Zm.3 1.7.961-.275-.001-.004-.96.279Zm.625 1.45-.838.546.838-.546Zm.625.8v1h2.606l-1.937-1.743-.669.743Zm-7.625 0-.707.707.293.293h.414v-1Zm-.55-.725-.844.537.009.013.009.013.826-.563Zm-.6-1.275-.946.324v.002l.946-.326Zm-.45-1.75-.991.138.003.015.002.016.986-.169Zm-.125-2.1.566-.824-1.566-1.077v1.901h1Zm1.6 1.1.92.39.319-.751-.673-.463-.566.824Zm-2.275 2.85.604.797.002-.002-.606-.795Zm-3.7 1.825.282.96.007-.003-.289-.957Zm.875-5.825.381.924.008-.003-.389-.921Zm2.6-2.1-.819-.574.819.574Zm1-6.4.698-.716-1.698-1.654v2.37h1Zm1.925 1.875.342.94 1.497-.545-1.141-1.111-.698.716Zm-3.825 1 .172.985.009-.002-.181-.983Zm-4.3.6.097.995h.007l-.104-.995Zm-3.825.875.433.902.007-.004-.44-.898Zm-.175 4.125-.546.838.007.005.007.004.532-.847Zm1.125 5.475c-1.827 0-3.421-.291-4.799-.851l-.753 1.852c1.656.674 3.512.999 5.552.999v-2Zm-4.795-.85c-1.351-.555-2.369-1.34-3.097-2.339l-1.616 1.178c.972 1.334 2.303 2.333 3.953 3.01l.76-1.849Zm-3.097-2.339c-.707-.97-1.083-2.172-1.083-3.661h-2c0 1.844.473 3.476 1.467 4.839l1.616-1.178ZM153.68 40.7c0-1.692.459-2.976 1.303-3.942l-1.506-1.316c-1.223 1.4-1.797 3.183-1.797 5.258h2Zm1.303-3.942c.906-1.038 2.123-1.85 3.688-2.418l-.682-1.88c-1.835.666-3.352 1.653-4.512 2.982l1.506 1.316Zm3.693-2.42c1.63-.601 3.404-1 5.328-1.193l-.199-1.99c-2.076.208-4.018.641-5.821 1.307l.692 1.876Zm5.326-1.193c2.913-.283 4.973-.545 6.135-.792l-.415-1.956c-1.038.22-2.994.474-5.914.758l.194 1.99Zm6.132-.791c.619-.13 1.197-.328 1.642-.653.483-.353.829-.879.829-1.551h-2a.19.19 0 0 1 .024-.086c.013-.024.015-.013-.033.023-.113.082-.372.205-.871.31l.409 1.957Zm2.471-2.204v-.05h-2v.05h2Zm0-.05c0-1.385-.706-2.464-1.913-3.184l-1.024 1.718c.692.413.937.884.937 1.466h2Zm-1.906-3.18c-1.153-.7-2.669-.995-4.444-.995v2c1.591 0 2.692.271 3.406.705l1.038-1.71Zm-4.444-.995c-1.882 0-3.48.34-4.665 1.15l1.13 1.65c.715-.49 1.85-.8 3.535-.8v-2Zm-4.662 1.148c-1.256.852-1.838 2.168-1.838 3.752h2c0-1.05.351-1.684.961-2.098l-1.123-1.654Zm-.838 2.752h-7.625v2h7.625v-2Zm-6.625 1c0-1.944.519-3.517 1.512-4.783l-1.574-1.234c-1.308 1.668-1.938 3.694-1.938 6.017h2Zm1.507-4.777c1.041-1.308 2.459-2.318 4.297-3.013l-.708-1.87c-2.129.805-3.861 2.012-5.154 3.637l1.565 1.245Zm4.303-3.015c1.85-.715 3.967-1.083 6.365-1.083v-2c-2.602 0-4.969.4-7.086 1.217l.721 1.866Zm6.365-1.083c2.23 0 4.272.342 6.135 1.015l.68-1.88c-2.104-.76-4.378-1.135-6.815-1.135v2Zm6.142 1.018c1.839.649 3.274 1.614 4.345 2.878l1.526-1.292c-1.329-1.57-3.077-2.721-5.205-3.472l-.666 1.886Zm4.349 2.884c1.035 1.205 1.584 2.761 1.584 4.748h2c0-2.38-.668-4.424-2.067-6.052l-1.517 1.304Zm1.584 4.748v1.05h2V30.6h-2Zm0 1.05v1.025h2V31.65h-2Zm0 1.025v9.4h2v-9.4h-2Zm0 9.4c0 .7.017 1.375.051 2.028l1.997-.106a37.004 37.004 0 0 1-.048-1.922h-2Zm.053 2.056c.055.674.165 1.308.336 1.898l1.921-.558a7.543 7.543 0 0 1-.263-1.502l-1.994.162Zm.335 1.894c.186.65.43 1.232.749 1.721l1.675-1.092c-.18-.278-.353-.662-.501-1.179l-1.923.55Zm.749 1.721c.259.397.526.756.794.997l1.338-1.486c-.065-.059-.215-.234-.457-.603l-1.675 1.092ZM180.98 47h-7.625v2h7.625v-2Zm-6.918.293-.003-.003-.008-.01a2.367 2.367 0 0 1-.124-.154 9.981 9.981 0 0 1-.296-.414l-1.652 1.126c.245.36.477.677.669.87l1.414-1.415Zm-.413-.555a5.043 5.043 0 0 1-.499-1.064l-1.891.652c.188.545.42 1.043.702 1.486l1.688-1.074Zm-.498-1.062a10.234 10.234 0 0 1-.411-1.595l-1.971.338c.11.638.273 1.274.49 1.905l1.892-.648Zm-.406-1.564a14.545 14.545 0 0 1-.115-1.962h-2c0 .832.043 1.58.134 2.238l1.981-.276Zm-1.682-1.138 1.6 1.1 1.133-1.648-1.6-1.1-1.133 1.648Zm1.246-.115c-.392.924-1.034 1.74-1.96 2.446l1.212 1.59c1.173-.894 2.048-1.978 2.589-3.255l-1.841-.78Zm-1.958 2.444c-.926.702-2.048 1.26-3.386 1.665l.579 1.914c1.53-.462 2.874-1.12 4.015-1.985l-1.208-1.594Zm-3.378 1.663c-1.315.386-2.753.584-4.318.584v2c1.734 0 3.364-.22 4.882-.666l-.564-1.918Zm-2.243-3.216c1.338 0 2.602-.239 3.781-.726l-.763-1.848c-.92.38-1.923.574-3.018.574v2Zm3.789-.729a6.932 6.932 0 0 0 3.029-2.447l-1.637-1.148a4.935 4.935 0 0 1-2.17 1.753l.778 1.842Zm3.029-2.447c.818-1.164 1.182-2.625 1.182-4.299h-2c0 1.393-.303 2.415-.819 3.15l1.637 1.15Zm1.182-4.299V33.6h-2v2.675h2Zm-1.698-1.959 1.925 1.875 1.396-1.432-1.925-1.875-1.396 1.432Zm2.281.22c-1.036.376-2.255.696-3.664.956l.362 1.967c1.491-.275 2.822-.621 3.986-1.044l-.684-1.88Zm-3.655.954a62.493 62.493 0 0 1-4.232.59l.208 1.99a64.516 64.516 0 0 0 4.368-.61l-.344-1.97Zm-4.226.59c-1.739.17-3.156.476-4.167.972l.88 1.796c.689-.338 1.822-.615 3.482-.778l-.195-1.99Zm-4.16.968c-.563.27-1.035.663-1.358 1.194-.323.528-.459 1.13-.459 1.758h2c0-.338.072-.562.166-.717.093-.152.246-.302.517-.431l-.866-1.803ZM159.455 40c0 1.226.506 2.246 1.529 2.913l1.092-1.676c-.41-.267-.621-.63-.621-1.237h-2Zm1.543 2.922c.95.597 2.24.828 3.732.828v-2c-1.342 0-2.185-.219-2.668-.522l-1.064 1.694Zm30.208 5.128-.242.97.242-.97Zm-3.95-1.625-.529.849.006.003.523-.852Zm-2.75-2.675-.851.524.004.008.005.007.842-.539Zm-1-4.225v-1h-1v1h1Zm7.7 0h1v-1h-1v1ZM192.481 42l-.468.884.008.004.46-.888Zm5.7.45.21.978.008-.002.009-.002-.227-.974Zm1.75-.775.614.79.004-.004-.618-.786Zm-.775-3.25-.354.935.005.002.349-.937Zm-4.675-1.1.168-.986h-.005l-.163.986Zm-3.7-.85.282-.96-.282.96Zm-3.45-1.45-.506.862.01.006.496-.868Zm-2.525-2.325-.832.555.005.006.827-.561Zm.675-8-.746-.666-.005.006.751.66Zm4.375-2.8-.329-.944.329.944Zm11.825.1-.362.932.007.003.355-.935Zm4.375 2.975-.758.652.004.004.754-.656Zm1.675 5v1h1v-1h-1Zm-7.625 0h-1v1h1v-1Zm-.65-1.925-.707.707.007.007.007.007.693-.721Zm-1.6-.925-.316.949.011.003.011.004.294-.956Zm-4-.1.196.98.01-.001.009-.002-.215-.977Zm-1.7.7.562.827.01-.006.01-.007-.582-.814Zm.05 2.75-.591.806.009.007.009.006.573-.819Zm2.1.875-.251.968.009.002.008.002.234-.972Zm3.125.625-.166.986h.004l.162-.986Zm3.525.775-.261.965.008.002.008.002.245-.969Zm3.5 1.375-.484.875.008.004.008.005.468-.884Zm2.65 2.325-.823.568.006.008.006.008.811-.584Zm-.025 7.525.84.543-.84-.543Zm-2.85 2.65.491.871.004-.002-.495-.869Zm-3.975 1.475-.211-.978-.013.003.224.975Zm-4.475-.5c-1.505 0-2.948-.174-4.332-.52l-.485 1.94c1.549.388 3.156.58 4.817.58v-2Zm-4.332-.52c-1.378-.345-2.598-.85-3.669-1.507l-1.047 1.704c1.262.776 2.675 1.354 4.231 1.743l.485-1.94Zm-3.664-1.504c-1.033-.643-1.839-1.432-2.437-2.365l-1.684 1.078c.769 1.2 1.796 2.195 3.063 2.985l1.058-1.698Zm-2.427-2.35c-.558-.907-.852-1.979-.852-3.251h-2c0 1.594.373 3.039 1.149 4.3l1.703-1.05Zm-.852-3.251v-.225h-2v.226h2Zm0-.225v-.226h-2v.226h2Zm-1 .775h7.7v-2h-7.7v2Zm6.7-1v.175h2v-.176h-2Zm0 .175v.176h2V39.7h-2Zm0 .175c0 .633.141 1.236.462 1.77.32.535.786.943 1.345 1.239l.936-1.768c-.291-.154-.462-.325-.566-.5-.105-.173-.177-.408-.177-.741h-2Zm1.815 3.013c1.062.551 2.407.787 3.96.787v-2c-1.38 0-2.368-.214-3.039-.563l-.921 1.776Zm3.96.787c.832 0 1.636-.081 2.41-.247l-.419-1.956a9.483 9.483 0 0 1-1.991.203v2Zm2.427-.251c.818-.19 1.545-.499 2.137-.96l-1.228-1.578c-.307.239-.747.447-1.362.59l.453 1.948Zm2.141-.963c.686-.539 1.082-1.277 1.082-2.161h-2c0 .216-.07.394-.317.589l1.235 1.572Zm1.082-2.161c0-.64-.183-1.241-.582-1.75-.391-.495-.933-.834-1.543-1.062l-.699 1.874c.373.14.568.296.67.425.091.117.154.27.154.513h2Zm-2.12-2.81c-1.063-.403-2.702-.782-4.862-1.15l-.336 1.97c2.14.366 3.618.72 4.489 1.05l.709-1.87Zm-4.867-1.152a29.972 29.972 0 0 1-3.581-.823l-.563 1.92c1.287.377 2.56.67 3.819.877l.325-1.974Zm-3.581-.823a15.026 15.026 0 0 1-3.236-1.358l-.992 1.736a17.015 17.015 0 0 0 3.665 1.542l.563-1.92Zm-3.225-1.352c-.933-.548-1.661-1.224-2.204-2.024l-1.655 1.122c.723 1.066 1.678 1.94 2.846 2.626l1.013-1.724Zm-2.2-2.018c-.505-.757-.782-1.706-.782-2.895h-2c0 1.51.357 2.862 1.118 4.005l1.664-1.11Zm-.782-2.895c0-1.582.47-2.857 1.377-3.89l-1.503-1.32c-1.26 1.434-1.874 3.192-1.874 5.21h2Zm1.372-3.884c.969-1.087 2.275-1.935 3.958-2.522l-.659-1.888c-1.95.68-3.562 1.699-4.792 3.078l1.493 1.332Zm3.958-2.522c1.697-.592 3.584-.894 5.67-.894v-2c-2.28 0-4.393.33-6.329 1.006l.659 1.888Zm5.67-.894c1.969 0 3.787.33 5.463.982l.725-1.864c-1.925-.748-3.99-1.118-6.188-1.118v2Zm5.47.985c1.664.631 2.977 1.533 3.972 2.692l1.517-1.304c-1.238-1.441-2.842-2.523-4.779-3.258l-.71 1.87Zm3.976 2.696c.947 1.089 1.429 2.4 1.429 3.994h2c0-2.04-.634-3.828-1.92-5.306l-1.509 1.312Zm1.429 3.994v.151h2v-.152h-2Zm0 .15v.201h2v-.202h-2Zm1-.8h-7.625v2h7.625v-2Zm-6.625 1V29.8h-2v.176h2Zm0-.175v-.126h-2v.126h2Zm0-.125c0-.906-.305-1.72-.957-2.346l-1.386 1.442c.215.206.343.477.343.904h2Zm-.943-2.332c-.548-.549-1.231-.933-2.013-1.174l-.588 1.912c.519.16.903.391 1.187.676l1.414-1.414Zm-1.99-1.167a7.37 7.37 0 0 0-2.342-.376v2c.595 0 1.163.092 1.709.274l.633-1.898Zm-2.342-.376a10.2 10.2 0 0 0-2.189.248l.429 1.954a8.206 8.206 0 0 1 1.76-.202v-2Zm-2.171.244c-.78.156-1.484.438-2.085.867l1.163 1.628c.332-.238.761-.423 1.314-.533l-.392-1.962Zm-2.065.854c-.752.51-1.139 1.276-1.139 2.177h2c0-.265.081-.4.262-.523l-1.123-1.654Zm-1.139 2.177c0 .919.43 1.672 1.159 2.206l1.183-1.612c-.272-.2-.342-.38-.342-.594h-2Zm1.177 2.22c.635.444 1.461.774 2.422 1.023l.502-1.936c-.838-.217-1.412-.47-1.777-.726l-1.147 1.638Zm2.439 1.027c.928.224 1.993.436 3.193.639l.333-1.972a45.99 45.99 0 0 1-3.058-.611l-.468 1.944Zm3.197.64a34.63 34.63 0 0 1 3.426.753l.522-1.93a36.77 36.77 0 0 0-3.624-.797l-.324 1.974Zm3.442.757c1.17.297 2.256.724 3.261 1.28l.969-1.749a15.581 15.581 0 0 0-3.739-1.47l-.491 1.94Zm3.277 1.29c.967.512 1.725 1.182 2.295 2.009l1.647-1.136c-.764-1.107-1.772-1.987-3.005-2.64l-.937 1.767Zm2.307 2.025c.533.74.836 1.73.836 3.041h2c0-1.623-.379-3.05-1.213-4.209l-1.623 1.168Zm.836 3.041c0 1.359-.311 2.462-.89 3.357l1.68 1.086c.822-1.272 1.21-2.768 1.21-4.443h-2Zm-.89 3.357c-.606.94-1.434 1.714-2.505 2.324l.99 1.738c1.33-.757 2.402-1.749 3.195-2.976l-1.68-1.086Zm-2.501 2.322c-1.087.612-2.316 1.07-3.695 1.369l.422 1.955c1.555-.336 2.976-.861 4.255-1.582l-.982-1.742Zm-3.708 1.371a18.9 18.9 0 0 1-4.251.475v2c1.607 0 3.174-.175 4.699-.525l-.448-1.95Zm12.602.875h-1v1h1v-1Zm0-39.075v-1h-1v1h1Zm7.35 0h1v-1h-1v1Zm0 22.375-.465.885 1.465.769V31.3h-1Zm-1.525-.8-.666-.746-1.076.962 1.277.67.465-.886Zm10.125-9.05v-1h-.382l-.284.254.666.746Zm9.5 0 .666.746 1.954-1.746h-2.62v1Zm-13.15 11.75-.873-.488 1.539 1.234-.666-.746Zm1.65-2.95.844-.536-.899-1.415-.818 1.463.873.488ZM237.859 48v1h1.82l-.976-1.536-.844.536Zm-8.15 0-.858.514.292.486h.566v-1Zm-8.2-13.675.076-.997-1.928-.147.994 1.658.858-.514Zm1.975.15.672.74 1.722-1.561-2.318-.176-.076.997Zm-4.3 3.9-.972-.234-.759 3.154 2.403-2.18-.672-.74Zm.8-3.325h1l-1.972-.234.972.234Zm0 12.95v1h1v-1h-1Zm-6.35 0V8.925h-2V48h2Zm-1-38.075h7.35v-2h-7.35v2Zm6.35-1V31.3h2V8.925h-2Zm1.465 21.49-1.525-.8-.93 1.77 1.525.8.93-1.77Zm-1.324.83 10.125-9.05-1.332-1.49-10.125 9.05 1.332 1.49Zm9.459-8.795h9.5v-2h-9.5v2Zm8.834-1.746-13.15 11.75 1.332 1.492 13.15-11.75-1.332-1.492Zm-11.611 12.984 1.65-2.95-1.746-.976-1.65 2.95 1.746.976Zm-.067-2.902 11.275 17.75 1.688-1.072-11.275-17.75-1.688 1.072ZM237.859 47h-8.15v2h8.15v-2Zm-7.292.486-8.2-13.675-1.716 1.028 8.2 13.675 1.716-1.028Zm-9.134-12.164 1.975.15.152-1.994-1.975-.15-.152 1.994Zm1.379-1.588-4.3 3.9 1.344 1.482 4.3-3.9-1.344-1.482Zm-2.656 4.875.8-3.325-1.944-.468-.8 3.325 1.944.468Zm-1.172-3.559V48h2V35.05h-2Zm1 11.95h-7.35v2h7.35v-2Zm20.127-5.075-.863.504.005.008.858-.512Zm0-14.35-.86-.51-.002.003.862.507Zm5.125-4.85.466.885.006-.003-.472-.882Zm15.15 0-.471.882.005.003.466-.885Zm5.1 4.85-.863.504.005.008.858-.512Zm0 14.35-.86-.51-.002.003.862.507Zm-9.15-.45.535.845-.535-.845Zm2.325-2.675.902.431.003-.005-.905-.426Zm0-8.1-.902.431.003.006.899-.437Zm-9.375-2.65-.518-.855-.007.004.525.851Zm-2.325 2.65.9.437.002-.006-.902-.431Zm0 8.1-.904.426.002.005.902-.431Zm2.325 2.675-.535.845.007.004.528-.849Zm3.525 6.1c-2.726 0-5.082-.562-7.098-1.654l-.953 1.758c2.351 1.274 5.044 1.896 8.051 1.896v-2Zm-7.098-1.654c-2.031-1.1-3.605-2.601-4.743-4.508l-1.717 1.025c1.328 2.226 3.171 3.975 5.507 5.241l.953-1.758Zm-4.738-4.5c-1.117-1.912-1.689-4.134-1.689-6.696h-2c0 2.871.645 5.45 1.962 7.704l1.727-1.008Zm-1.689-6.696c0-2.544.572-4.748 1.687-6.643l-1.724-1.014c-1.318 2.239-1.963 4.801-1.963 7.657h2Zm1.686-6.64c1.137-1.922 2.707-3.41 4.73-4.475l-.932-1.77c-2.343 1.235-4.19 2.98-5.519 5.226l1.721 1.018Zm4.736-4.478c2.016-1.078 4.375-1.632 7.103-1.632v-2c-3.005 0-5.696.612-8.046 1.868l.943 1.764Zm7.103-1.632c2.729 0 5.087.554 7.104 1.632l.943-1.764c-2.35-1.256-5.042-1.868-8.047-1.868v2Zm7.109 1.635c2.022 1.065 3.583 2.551 4.703 4.47l1.727-1.01c-1.313-2.248-3.153-3.995-5.498-5.23l-.932 1.77Zm4.708 4.477c1.13 1.894 1.708 4.096 1.708 6.638h2c0-2.858-.654-5.423-1.991-7.663l-1.717 1.025Zm1.708 6.638c0 2.56-.579 4.78-1.71 6.69l1.721 1.02c1.335-2.256 1.989-4.837 1.989-7.71h-2Zm-1.712 6.693c-1.121 1.904-2.685 3.403-4.714 4.503l.953 1.758c2.337-1.267 4.173-3.018 5.485-5.247l-1.724-1.014Zm-4.714 4.503c-2.016 1.092-4.373 1.654-7.099 1.654v2c3.007 0 5.701-.622 8.052-1.896l-.953-1.758Zm-7.099-2.496c1.512 0 2.879-.357 4.06-1.105l-1.07-1.69c-.818.518-1.802.795-2.99.795v2Zm4.06-1.105c1.171-.742 2.068-1.783 2.692-3.089l-1.804-.863c-.475.995-1.129 1.737-1.958 2.262l1.07 1.69Zm2.695-3.094c.624-1.324.92-2.833.92-4.501h-2c0 1.432-.254 2.64-.729 3.649l1.809.852Zm.92-4.501c0-1.667-.296-3.165-.925-4.462l-1.799.874c.47.97.724 2.155.724 3.588h2Zm-.923-4.457c-.625-1.307-1.525-2.343-2.702-3.07l-1.05 1.703c.823.508 1.474 1.238 1.948 2.23l1.804-.863Zm-2.702-3.07c-1.18-.727-2.543-1.073-4.05-1.073v2c1.193 0 2.181.27 3 .776l1.05-1.702Zm-4.05-1.073c-1.493 0-2.852.347-4.043 1.07l1.037 1.71c.842-.51 1.833-.78 3.006-.78v-2Zm-4.05 1.074c-1.177.726-2.076 1.762-2.702 3.07l1.804.863c.475-.993 1.125-1.724 1.948-2.23l-1.05-1.703Zm-2.699 3.064c-.63 1.297-.926 2.795-.926 4.462h2c0-1.433.254-2.619.725-3.588l-1.799-.874Zm-.926 4.462c0 1.668.296 3.177.921 4.501l1.809-.852c-.476-1.01-.73-2.217-.73-3.649h-2Zm.923 4.506c.625 1.306 1.521 2.347 2.692 3.089l1.07-1.69c-.829-.525-1.482-1.267-1.958-2.262l-1.804.863Zm2.699 3.093c1.192.743 2.555 1.101 4.053 1.101v-2c-1.168 0-2.156-.275-2.996-.799l-1.057 1.698Z" mask="url(#d)"/></g></g><defs><filter id="b" width="59" height="50" x="0" y="10" color-interpolation-filters="sRGB" filterUnits="userSpaceOnUse"><feFlood flood-opacity="0" result="BackgroundImageFix"/><feColorMatrix in="SourceAlpha" result="hardAlpha" values="0 0 0 0 0 0 0 0 0 0 0 0 0 0 0 0 0 0 127 0"/><feOffset dx="1" dy="2"/><feComposite in2="hardAlpha" operator="out"/><feColorMatrix values="0 0 0 0 0 0 0 0 0 0 0 0 0 0 0 0 0 0 1 0"/><feBlend in2="BackgroundImageFix" result="effect1_dropShadow_296_13"/><feBlend in="SourceGraphic" in2="effect1_dropShadow_296_13" result="shape"/></filter><filter id="c" width="195.286" height="43.675" x="74.05" y="7.925" color-interpolation-filters="sRGB" filterUnits="userSpaceOnUse"><feFlood flood-opacity="0" result="BackgroundImageFix"/><feColorMatrix in="SourceAlpha" result="hardAlpha" values="0 0 0 0 0 0 0 0 0 0 0 0 0 0 0 0 0 0 127 0"/><feOffset dx="1" dy="2"/><feComposite in2="hardAlpha" operator="out"/><feColorMatrix values="0 0 0 0 0 0 0 0 0 0 0 0 0 0 0 0 0 0 1 0"/><feBlend in2="BackgroundImageFix" result="effect1_dropShadow_296_13"/><feBlend in="SourceGraphic" in2="effect1_dropShadow_296_13" result="shape"/></filter><clipPath id="a"><path fill="#fff" d="M0 0h272v68H0z"/></clipPath></defs></svg>